<svg width="139" height="31" viewBox="0 0 139 31" fill="none" xmlns="http://www.w3.org/2000/svg">
<rect width="77" height="21" rx="4" transform="matrix(1 0 0 -1 0 27)" fill="#BB2649"/>
<path d="M2.19318 23V9.90909H6.65909V12.3977H6.79545C7.06818 11.5795 7.53409 10.9318 8.19318 10.4545C8.85227 9.97727 9.63636 9.73863 10.5454 9.73863C11.4659 9.73863 12.2585 9.98295 12.9233 10.4716C13.5881 10.9545 13.9886 11.5966 14.125 12.3977H14.2614C14.4829 11.5966 14.9545 10.9545 15.6761 10.4716C16.3977 9.98295 17.2443 9.73863 18.2159 9.73863C19.4716 9.73863 20.4886 10.142 21.267 10.9489C22.0511 11.7557 22.4432 12.8295 22.4432 14.1704V23H17.7386V15.3636C17.7386 14.7898 17.5937 14.3409 17.304 14.017C17.0142 13.6875 16.625 13.5227 16.1364 13.5227C15.6534 13.5227 15.2699 13.6875 14.9858 14.017C14.7074 14.3409 14.5682 14.7898 14.5682 15.3636V23H10.0682V15.3636C10.0682 14.7898 9.92329 14.3409 9.63352 14.017C9.34374 13.6875 8.95454 13.5227 8.4659 13.5227C8.14204 13.5227 7.86363 13.5966 7.63068 13.7443C7.39772 13.892 7.2159 14.1051 7.08522 14.3835C6.96022 14.6562 6.89772 14.983 6.89772 15.3636V23H2.19318Z" fill="white"/>
<path d="M31.0362 23.2386C29.6385 23.2386 28.4339 22.9716 27.4226 22.4375C26.4169 21.8977 25.6413 21.125 25.0959 20.1193C24.5561 19.108 24.2862 17.8977 24.2862 16.4886C24.2862 15.1364 24.5589 13.9545 25.1044 12.9432C25.6499 11.9318 26.4197 11.1449 27.4141 10.5824C28.4084 10.0199 29.5817 9.73863 30.9339 9.73863C31.9226 9.73863 32.8175 9.89204 33.6186 10.1989C34.4197 10.5057 35.1044 10.9517 35.6726 11.5369C36.2408 12.1165 36.6783 12.821 36.9851 13.6506C37.2919 14.4801 37.4453 15.4148 37.4453 16.4545V17.5455H25.7521V14.9545H33.1158C33.1101 14.5795 33.0135 14.25 32.826 13.9659C32.6442 13.6761 32.397 13.4517 32.0845 13.2926C31.7777 13.1278 31.4283 13.0454 31.0362 13.0454C30.6555 13.0454 30.3061 13.1278 29.9879 13.2926C29.6697 13.4517 29.4141 13.6733 29.2209 13.9574C29.0334 14.2415 28.9339 14.5739 28.9226 14.9545V17.75C28.9226 18.1705 29.0106 18.5455 29.1868 18.875C29.3629 19.2045 29.6158 19.4631 29.9453 19.6506C30.2749 19.8381 30.6726 19.9318 31.1385 19.9318C31.4624 19.9318 31.7578 19.8864 32.0249 19.7955C32.2976 19.7045 32.5305 19.5739 32.7237 19.4034C32.9169 19.2273 33.0589 19.017 33.1499 18.7727H37.4453C37.2976 19.6818 36.9481 20.4716 36.397 21.142C35.8459 21.8068 35.1158 22.3239 34.2067 22.6932C33.3033 23.0568 32.2464 23.2386 31.0362 23.2386Z" fill="white"/>
<path d="M39.3651 23V9.90909H43.831V12.3977H43.9673C44.2401 11.5795 44.706 10.9318 45.3651 10.4545C46.0241 9.97727 46.8082 9.73863 47.7173 9.73863C48.6378 9.73863 49.4304 9.98295 50.0952 10.4716C50.7599 10.9545 51.1605 11.5966 51.2969 12.3977H51.4332C51.6548 11.5966 52.1264 10.9545 52.848 10.4716C53.5696 9.98295 54.4162 9.73863 55.3878 9.73863C56.6435 9.73863 57.6605 10.142 58.4389 10.9489C59.223 11.7557 59.6151 12.8295 59.6151 14.1704V23H54.9105V15.3636C54.9105 14.7898 54.7656 14.3409 54.4758 14.017C54.1861 13.6875 53.7969 13.5227 53.3082 13.5227C52.8253 13.5227 52.4418 13.6875 52.1577 14.017C51.8793 14.3409 51.7401 14.7898 51.7401 15.3636V23H47.2401V15.3636C47.2401 14.7898 47.0952 14.3409 46.8054 14.017C46.5156 13.6875 46.1264 13.5227 45.6378 13.5227C45.3139 13.5227 45.0355 13.5966 44.8026 13.7443C44.5696 13.892 44.3878 14.1051 44.2571 14.3835C44.1321 14.6562 44.0696 14.983 44.0696 15.3636V23H39.3651Z" fill="white"/>
<path d="M68.2081 23.2386C66.8104 23.2386 65.6058 22.9716 64.5945 22.4375C63.5888 21.8977 62.8132 21.125 62.2677 20.1193C61.728 19.108 61.4581 17.8977 61.4581 16.4886C61.4581 15.1364 61.7308 13.9545 62.2763 12.9432C62.8217 11.9318 63.5916 11.1449 64.5859 10.5824C65.5803 10.0199 66.7535 9.73863 68.1058 9.73863C69.0945 9.73863 69.9893 9.89204 70.7905 10.1989C71.5916 10.5057 72.2763 10.9517 72.8445 11.5369C73.4126 12.1165 73.8501 12.821 74.157 13.6506C74.4638 14.4801 74.6172 15.4148 74.6172 16.4545V17.5455H62.924V14.9545H70.2876C70.282 14.5795 70.1854 14.25 69.9979 13.9659C69.816 13.6761 69.5689 13.4517 69.2564 13.2926C68.9496 13.1278 68.6001 13.0454 68.2081 13.0454C67.8274 13.0454 67.478 13.1278 67.1598 13.2926C66.8416 13.4517 66.5859 13.6733 66.3928 13.9574C66.2053 14.2415 66.1058 14.5739 66.0945 14.9545V17.75C66.0945 18.1705 66.1825 18.5455 66.3587 18.875C66.5348 19.2045 66.7876 19.4631 67.1172 19.6506C67.4467 19.8381 67.8445 19.9318 68.3104 19.9318C68.6342 19.9318 68.9297 19.8864 69.1967 19.7955C69.4695 19.7045 69.7024 19.5739 69.8956 19.4034C70.0888 19.2273 70.2308 19.017 70.3217 18.7727H74.6172C74.4695 19.6818 74.12 20.4716 73.5689 21.142C73.0177 21.8068 72.2876 22.3239 71.3785 22.6932C70.4751 23.0568 69.4183 23.2386 68.2081 23.2386Z" fill="white"/>
<path d="M79.125 25V7.54546H83.8295V14.1932H83.8977C84.0682 13.75 84.3182 13.3438 84.6477 12.9744C84.9773 12.5994 85.3864 12.3011 85.875 12.0795C86.3636 11.8523 86.9318 11.7386 87.5795 11.7386C88.4432 11.7386 89.2642 11.9688 90.0426 12.429C90.8267 12.8892 91.4631 13.6136 91.9517 14.6023C92.446 15.5909 92.6932 16.875 92.6932 18.4545C92.6932 19.9659 92.4574 21.2188 91.9858 22.2131C91.5199 23.2074 90.8949 23.9489 90.1108 24.4375C89.3324 24.9261 88.4773 25.1705 87.5455 25.1705C86.9318 25.1705 86.3835 25.071 85.9006 24.8722C85.4233 24.6676 85.0142 24.392 84.6733 24.0455C84.3381 23.6932 84.0795 23.2955 83.8977 22.8523H83.7955V25H79.125ZM83.7273 18.4545C83.7273 19.0909 83.8097 19.642 83.9744 20.108C84.1449 20.5682 84.3835 20.9261 84.6903 21.1818C85.0028 21.4318 85.375 21.5568 85.8068 21.5568C86.2386 21.5568 86.6051 21.4347 86.9062 21.1903C87.2131 20.9403 87.446 20.5852 87.6051 20.125C87.7699 19.6591 87.8523 19.1023 87.8523 18.4545C87.8523 17.8068 87.7699 17.2528 87.6051 16.7926C87.446 16.3267 87.2131 15.9716 86.9062 15.7273C86.6051 15.4773 86.2386 15.3523 85.8068 15.3523C85.375 15.3523 85.0028 15.4773 84.6903 15.7273C84.3835 15.9716 84.1449 16.3267 83.9744 16.7926C83.8097 17.2528 83.7273 17.8068 83.7273 18.4545Z" fill="#BB2649"/>
<path d="M100.969 25.2386C99.5483 25.2386 98.3324 24.9574 97.321 24.3949C96.3097 23.8267 95.5341 23.0369 94.9943 22.0256C94.4545 21.0085 94.1847 19.8295 94.1847 18.4886C94.1847 17.1477 94.4545 15.9716 94.9943 14.9602C95.5341 13.9432 96.3097 13.1534 97.321 12.5909C98.3324 12.0227 99.5483 11.7386 100.969 11.7386C102.389 11.7386 103.605 12.0227 104.616 12.5909C105.628 13.1534 106.403 13.9432 106.943 14.9602C107.483 15.9716 107.753 17.1477 107.753 18.4886C107.753 19.8295 107.483 21.0085 106.943 22.0256C106.403 23.0369 105.628 23.8267 104.616 24.3949C103.605 24.9574 102.389 25.2386 100.969 25.2386ZM101.003 21.7614C101.401 21.7614 101.744 21.6278 102.034 21.3608C102.324 21.0938 102.548 20.7131 102.707 20.2188C102.866 19.7244 102.946 19.1364 102.946 18.4545C102.946 17.767 102.866 17.179 102.707 16.6903C102.548 16.196 102.324 15.8153 102.034 15.5483C101.744 15.2813 101.401 15.1477 101.003 15.1477C100.582 15.1477 100.222 15.2813 99.9205 15.5483C99.6193 15.8153 99.3892 16.196 99.2301 16.6903C99.071 17.179 98.9915 17.767 98.9915 18.4545C98.9915 19.1364 99.071 19.7244 99.2301 20.2188C99.3892 20.7131 99.6193 21.0938 99.9205 21.3608C100.222 21.6278 100.582 21.7614 101.003 21.7614Z" fill="#BB2649"/>
<path d="M115.969 25.2386C114.548 25.2386 113.332 24.9574 112.321 24.3949C111.31 23.8267 110.534 23.0369 109.994 22.0256C109.455 21.0085 109.185 19.8295 109.185 18.4886C109.185 17.1477 109.455 15.9716 109.994 14.9602C110.534 13.9432 111.31 13.1534 112.321 12.5909C113.332 12.0227 114.548 11.7386 115.969 11.7386C117.389 11.7386 118.605 12.0227 119.616 12.5909C120.628 13.1534 121.403 13.9432 121.943 14.9602C122.483 15.9716 122.753 17.1477 122.753 18.4886C122.753 19.8295 122.483 21.0085 121.943 22.0256C121.403 23.0369 120.628 23.8267 119.616 24.3949C118.605 24.9574 117.389 25.2386 115.969 25.2386ZM116.003 21.7614C116.401 21.7614 116.744 21.6278 117.034 21.3608C117.324 21.0938 117.548 20.7131 117.707 20.2188C117.866 19.7244 117.946 19.1364 117.946 18.4545C117.946 17.767 117.866 17.179 117.707 16.6903C117.548 16.196 117.324 15.8153 117.034 15.5483C116.744 15.2813 116.401 15.1477 116.003 15.1477C115.582 15.1477 115.222 15.2813 114.92 15.5483C114.619 15.8153 114.389 16.196 114.23 16.6903C114.071 17.179 113.991 17.767 113.991 18.4545C113.991 19.1364 114.071 19.7244 114.23 20.2188C114.389 20.7131 114.619 21.0938 114.92 21.3608C115.222 21.6278 115.582 21.7614 116.003 21.7614Z" fill="#BB2649"/>
<path d="M128.889 21.8977L128.923 16.3068H129.537L132.707 11.9091H137.991L132.673 18.7614H131.344L128.889 21.8977ZM124.662 25V7.54546H129.366V25H124.662ZM132.741 25L129.741 19.8182L132.81 16.4773L138.128 25H132.741Z" fill="#BB2649"/>
</svg>
